<?xml version="1.0" standalone="no"?>
<!DOCTYPE svg PUBLIC "-//W3C//DTD SVG 20010904//EN"
 "http://www.w3.org/TR/2001/REC-SVG-20010904/DTD/svg10.dtd">
<svg version="1.0" xmlns="http://www.w3.org/2000/svg"
 width="300.000000pt" height="150.000000pt" viewBox="0 0 300.000000 150.000000"
 preserveAspectRatio="xMidYMid meet">
<metadata>
Created by potrace 1.10, written by Peter Selinger 2001-2011
</metadata>
<g transform="translate(0.000000,150.000000) scale(0.100000,-0.100000)"
fill="#000000" stroke="none">
<path d="M716 782 c2 -859 0 -782 19 -782 13 0 15 90 15 750 0 708 -1 750 -17
750 -17 0 -18 -40 -17 -718z"/>
<path d="M2250 750 c0 -660 2 -750 15 -750 18 0 16 -79 18 822 2 640 1 678
-15 678 -17 0 -18 -42 -18 -750z"/>
<path d="M1445 1269 c-27 -56 -55 -103 -62 -106 -7 -3 -35 9 -61 26 -27 17
-51 31 -53 31 -3 0 10 -71 28 -157 18 -87 32 -166 33 -175 0 -36 -37 -16 -101
56 l-67 74 -17 -44 c-9 -24 -20 -46 -23 -48 -4 -2 -45 5 -91 15 -46 11 -85 18
-87 16 -2 -2 10 -43 26 -92 33 -96 30 -109 -21 -120 -16 -4 -29 -10 -28 -13 0
-4 68 -60 150 -126 85 -67 149 -125 149 -135 0 -9 -9 -35 -20 -59 l-20 -44 28
6 c15 4 78 15 141 26 138 23 142 21 136 -59 -2 -31 -7 -95 -10 -143 l-5 -88
30 0 30 0 -5 88 c-3 48 -8 112 -10 143 -6 80 -2 82 136 59 63 -11 126 -22 141
-26 l28 -6 -20 44 c-11 24 -20 50 -20 59 0 10 64 68 149 135 82 66 150 122
150 126 1 3 -12 9 -28 13 -51 11 -54 24 -21 120 16 49 28 90 26 92 -2 2 -41
-5 -87 -16 -46 -11 -87 -18 -90 -15 -4 2 -15 24 -24 48 l-17 44 -67 -74 c-64
-72 -101 -92 -101 -56 1 9 15 88 33 175 18 86 31 157 28 157 -2 0 -26 -14 -53
-31 -26 -17 -54 -29 -61 -26 -7 3 -35 50 -62 106 -28 55 -52 101 -55 101 -3 0
-27 -46 -55 -101z m95 -48 c36 -73 62 -93 107 -85 40 7 39 12 13 -125 -21
-106 -19 -137 9 -158 27 -20 40 -15 95 37 29 28 56 50 60 50 4 0 17 -9 29 -21
19 -18 30 -20 85 -15 70 7 69 9 48 -71 -13 -48 -12 -54 6 -84 17 -28 18 -34 6
-43 -77 -59 -212 -173 -229 -194 -13 -18 -19 -36 -16 -55 2 -16 -1 -31 -7 -33
-6 -2 -55 2 -109 10 -73 11 -104 12 -122 4 -18 -8 -28 -8 -38 0 -14 12 -71 8
-132 -7 -16 -5 -46 -8 -65 -7 -29 1 -34 4 -32 20 9 50 -24 85 -220 240 l-37
29 19 34 c17 32 17 39 4 81 -24 82 -23 84 47 76 56 -6 62 -5 88 20 l27 26 44
-46 c52 -53 83 -68 110 -54 30 16 32 41 10 161 -11 62 -20 116 -20 120 0 4 18
7 39 6 49 -2 65 12 102 85 16 32 34 58 39 58 5 0 23 -27 40 -59z"/>
</g>
</svg>
